<svg width="40" height="40" viewBox="0 0 40 40" fill="none" xmlns="http://www.w3.org/2000/svg">
<path d="M22.3333 3.33326H9.99992C9.11586 3.33326 8.26802 3.68445 7.6429 4.30957C7.01777 4.93469 6.66659 5.78253 6.66659 6.66659V33.3333C6.66659 34.2173 7.01777 35.0652 7.6429 35.6903C8.26802 36.3154 9.11586 36.6666 9.99992 36.6666H29.9999C30.884 36.6666 31.7318 36.3154 32.3569 35.6903C32.9821 35.0652 33.3333 34.2173 33.3333 33.3333V20.9999M3.33325 9.99992H9.99992M3.33325 16.6666H9.99992M3.33325 23.3333H9.99992M3.33325 29.9999H9.99992M35.6299 9.37659C36.2938 8.71266 36.6668 7.81219 36.6668 6.87326C36.6668 5.93432 36.2938 5.03385 35.6299 4.36992C34.966 3.706 34.0655 3.33301 33.1266 3.33301C32.1877 3.33301 31.2872 3.706 30.6233 4.36992L22.2733 12.7233C21.877 13.1193 21.587 13.6088 21.4299 14.1466L20.0349 18.9299C19.9931 19.0733 19.9906 19.2254 20.0277 19.3701C20.0647 19.5148 20.14 19.6469 20.2457 19.7525C20.3513 19.8581 20.4834 19.9334 20.6281 19.9705C20.7728 20.0076 20.9248 20.0051 21.0683 19.9633L25.8516 18.5683C26.3894 18.4112 26.8789 18.1212 27.2749 17.7249L35.6299 9.37659Z" stroke="#606D76" stroke-width="2.5" stroke-linecap="round" stroke-linejoin="round"/>
</svg>
