<svg width="16" height="16" viewBox="0 0 16 16" fill="none" xmlns="http://www.w3.org/2000/svg">
<path d="M6.84533 14.0007C6.96236 14.2033 7.13068 14.3716 7.33336 14.4886C7.53605 14.6057 7.76596 14.6673 8 14.6673C8.23404 14.6673 8.46395 14.6057 8.66664 14.4886C8.86932 14.3716 9.03764 14.2033 9.15467 14.0007M2.17467 10.218C2.08758 10.3134 2.0301 10.4321 2.00924 10.5597C1.98837 10.6872 2.00501 10.818 2.05714 10.9363C2.10926 11.0545 2.19462 11.155 2.30284 11.2256C2.41105 11.2962 2.53745 11.3339 2.66667 11.334H13.3333C13.4625 11.334 13.589 11.2965 13.6972 11.2261C13.8055 11.1556 13.891 11.0552 13.9433 10.937C13.9955 10.8188 14.0123 10.688 13.9916 10.5605C13.9709 10.433 13.9136 10.3142 13.8267 10.2187C12.94 9.30465 12 8.33332 12 5.33398C12 4.27312 11.5786 3.2557 10.8284 2.50556C10.0783 1.75541 9.06087 1.33398 8 1.33398C6.93914 1.33398 5.92172 1.75541 5.17157 2.50556C4.42143 3.2557 4 4.27312 4 5.33398C4 8.33332 3.05933 9.30465 2.17467 10.218Z" stroke="#0B191F" stroke-width="1.5" stroke-linecap="round" stroke-linejoin="round"/>
</svg>
