<svg width="16" height="16" viewBox="0 0 16 16" fill="none" xmlns="http://www.w3.org/2000/svg">
<path d="M6.66658 8H9.33325M6.66658 5.33333H9.33325M9.33325 14V12C9.33325 11.6464 9.19278 11.3072 8.94273 11.0572C8.69268 10.8071 8.35354 10.6667 7.99992 10.6667C7.6463 10.6667 7.30716 10.8071 7.05711 11.0572C6.80706 11.3072 6.66658 11.6464 6.66658 12V14M3.99992 6.66667H2.66659C2.31296 6.66667 1.97382 6.80714 1.72378 7.05719C1.47373 7.30724 1.33325 7.64638 1.33325 8V12.6667C1.33325 13.0203 1.47373 13.3594 1.72378 13.6095C1.97382 13.8595 2.31296 14 2.66659 14H13.3333C13.6869 14 14.026 13.8595 14.2761 13.6095C14.5261 13.3594 14.6666 13.0203 14.6666 12.6667V6C14.6666 5.64638 14.5261 5.30724 14.2761 5.05719C14.026 4.80714 13.6869 4.66667 13.3333 4.66667H11.9999M3.99992 14V3.33333C3.99992 2.97971 4.14039 2.64057 4.39044 2.39052C4.64049 2.14048 4.97963 2 5.33325 2H10.6666C11.0202 2 11.3593 2.14048 11.6094 2.39052C11.8594 2.64057 11.9999 2.97971 11.9999 3.33333V14" stroke="#606D76" stroke-width="1.5" stroke-linecap="round" stroke-linejoin="round"/>
</svg>
