<svg width="16" height="16" viewBox="0 0 16 16" fill="none" xmlns="http://www.w3.org/2000/svg">
<path d="M6.73336 1.45542C7.57004 1.2935 8.43001 1.2935 9.26669 1.45542M9.26669 14.5461C8.43001 14.708 7.57004 14.708 6.73336 14.5461M11.7394 2.48142C12.447 2.96091 13.0558 3.572 13.5327 4.28142M1.45469 9.26742C1.29277 8.43074 1.29277 7.57077 1.45469 6.73409M13.5194 11.7401C13.0399 12.4477 12.4288 13.0566 11.7194 13.5334M14.5454 6.73409C14.7073 7.57077 14.7073 8.43074 14.5454 9.26742M2.48069 4.26142C2.96017 3.55378 3.57127 2.94494 4.28069 2.46809M4.26069 13.5201C3.55304 13.0406 2.94421 12.4295 2.46736 11.7201" stroke="#0B191F" stroke-linecap="round" stroke-linejoin="round"/>
</svg>
