<svg width="176" height="20" viewBox="0 0 176 20" fill="none" xmlns="http://www.w3.org/2000/svg">
<path d="M6.50365 13.2642C6.50365 14.6895 7.9247 15.4021 10.7668 15.4021C12.6872 15.4021 15.0983 14.6767 18.0001 13.2257L19.306 12.5344C21.2861 11.5273 22.4041 11.3097 22.6602 11.8815C22.7285 12.0351 22.7626 12.2144 22.7626 12.4192C22.7626 12.6155 22.6773 12.8203 22.5066 13.0337C22.3444 13.2385 22.1225 13.469 21.8408 13.725C21.5592 13.9725 21.2306 14.2371 20.8551 14.5188C20.4795 14.7919 20.0827 15.065 19.6644 15.3381L18.4098 16.1191C17.9831 16.3751 17.5222 16.6269 17.0272 16.8744L15.158 17.7962C12.2306 19.1618 9.46952 19.8446 6.87491 19.8446C4.60463 19.8446 2.85925 19.3965 1.63876 18.5003C0.546293 17.7066 5.96922e-05 16.6824 5.96922e-05 15.4277C5.96922e-05 13.6952 0.781002 11.9498 2.34289 10.1916C3.6914 8.68092 5.5392 7.24706 7.8863 5.89001C9.93467 4.70366 12.1196 3.73068 14.4411 2.97108C16.6346 2.24561 18.4141 1.88288 19.7797 1.88288C20.0699 1.88288 20.3131 1.97676 20.5094 2.16453C20.8679 2.49739 21.0471 2.82598 21.0471 3.15031C21.0471 4.41347 20.5222 5.43339 19.4724 6.21007C18.5762 6.86725 17.5307 7.19585 16.3358 7.19585C15.141 7.19585 14.2448 7.07636 13.6473 6.83738C11.4197 7.69941 9.61034 8.85588 8.21916 10.3068C7.63879 10.9128 7.20777 11.4804 6.92612 12.0095C6.64447 12.5387 6.50365 12.9569 6.50365 13.2642ZM33.6579 11.395C33.6579 11.8559 34.0505 12.0863 34.8357 12.0863C35.4161 12.0863 36.1757 11.8047 37.1145 11.2414L38.1387 10.6781C38.4545 10.4988 38.7276 10.4092 38.9581 10.4092C39.197 10.4092 39.3848 10.4818 39.5214 10.6269C39.6579 10.772 39.7262 10.9725 39.7262 11.2286C39.7262 11.4846 39.6409 11.7833 39.4702 12.1247C39.2995 12.4576 39.0648 12.8118 38.766 13.1873C38.4673 13.5543 38.1174 13.9213 37.7162 14.2883C37.3151 14.6468 36.8841 14.9711 36.4232 15.2613C35.399 15.9014 34.4474 16.2215 33.5683 16.2215C32.638 16.2215 31.8955 16.0636 31.3407 15.7478C31.17 15.6454 31.0036 15.5387 30.8414 15.4277C29.9282 16.469 28.6053 17.4249 26.8727 18.2955C25.0291 19.2172 23.4203 19.6781 22.0462 19.6781C20.6038 19.6781 19.4644 19.1106 18.628 17.9754C17.9537 17.0536 17.6166 16.1191 17.6166 15.1717C17.6166 13.8061 18.3463 12.5045 19.8058 11.267C20.8812 10.3623 21.9182 9.67523 22.9167 9.20581C23.9239 8.73639 24.8328 8.37366 25.6436 8.11762C27.3592 7.57992 28.904 7.31107 30.2781 7.31107C30.8926 7.31107 31.4388 7.43056 31.9168 7.66953C32.4033 7.89998 32.7617 8.13468 32.9922 8.37366C33.5384 8.91136 33.8115 9.59842 33.8115 10.4348C33.8115 10.6823 33.7859 10.8744 33.7347 11.0109C33.6835 11.1475 33.6579 11.2755 33.6579 11.395ZM23.1856 13.8147L23.1728 13.8531V13.8659C23.1728 14.2329 23.2539 14.4718 23.416 14.5828C23.8086 14.8218 24.2226 14.8858 24.6579 14.7748C25.0931 14.6553 25.5071 14.5102 25.8997 14.3395C26.8727 13.9213 27.7518 13.3922 28.537 12.7521C28.4004 12.4789 28.3321 12.1973 28.3321 11.9071C28.3321 11.2926 28.601 10.6781 29.1387 10.0636C28.4559 10.0636 27.5341 10.3836 26.3734 11.0237C25.0931 11.7321 24.133 12.4619 23.4929 13.2129C23.288 13.469 23.1856 13.6696 23.1856 13.8147ZM51.2232 12.4064C51.2232 13.1831 51.4494 13.5714 51.9017 13.5714C53.0113 13.5714 54.4537 12.8203 56.2289 11.3182L56.5746 11.0237C57.2659 10.5629 57.825 10.3324 58.2517 10.3324C58.687 10.3324 58.9601 10.3964 59.071 10.5245C59.1905 10.6525 59.2503 10.8573 59.2503 11.139C59.2503 11.7705 58.9302 12.4405 58.2901 13.1489C57.3342 14.3097 56.0241 15.4107 54.3598 16.4519C52.4309 17.6639 50.7026 18.2699 49.1748 18.2699C48.108 18.2699 47.438 17.6767 47.1649 16.4903C47.0881 16.1831 47.0326 15.8886 46.9984 15.607C46.9131 14.9242 46.8235 14.5444 46.7296 14.4676C46.6357 14.3908 46.4479 14.3993 46.1663 14.4932C45.8932 14.5785 45.5646 14.7279 45.1805 14.9413C44.805 15.1461 44.3868 15.3979 43.9259 15.6966C41.4849 17.3182 40.0809 18.2443 39.7139 18.4747C38.8348 19.0209 38.2417 19.2941 37.9344 19.2941C37.6271 19.2941 37.3242 19.23 37.0254 19.102C36.7352 18.974 36.4792 18.8118 36.2573 18.6155C35.7964 18.1802 35.566 17.7364 35.566 17.2841C35.566 14.698 36.1293 12.4363 37.2559 10.4988C38.0069 9.19301 38.9287 8.28831 40.0212 7.78475C40.5759 7.52017 41.1734 7.38788 41.8135 7.38788C42.9828 7.38788 43.5674 7.77195 43.5674 8.54009C43.5674 9.00951 43.29 9.77765 42.7353 10.8445L42.3512 11.5998C42.0781 12.1205 41.9458 12.4149 41.9543 12.4832C42.0055 12.7393 42.1208 12.8673 42.3 12.8673C42.4963 12.8673 42.7865 12.7222 43.1705 12.432L45.5262 10.6781L46.704 9.85873C48.061 8.9711 49.0596 8.52729 49.6997 8.52729C50.0411 8.52729 50.3527 8.66385 50.6343 8.93696C51.1549 9.43199 51.4153 9.863 51.4153 10.23C51.4153 10.3495 51.4025 10.4946 51.3768 10.6653C51.3598 10.836 51.3384 11.0195 51.3128 11.2158L51.2616 11.8175C51.236 12.0223 51.2232 12.2186 51.2232 12.4064ZM70.2096 10.5117C71.046 10.5117 71.4642 10.8018 71.4642 11.3822C71.4642 11.937 71.0716 12.6539 70.2864 13.533L69.6591 14.1859C68.8995 14.9626 68.0119 15.7265 66.9962 16.4775C65.9891 17.2286 65.1015 17.8218 64.3333 18.2571C62.5495 19.2471 60.9322 19.7421 59.4812 19.7421C58.1157 19.7421 57.0018 19.3325 56.1398 18.5131C55.3973 17.8047 55.026 17.0579 55.026 16.2727C55.026 15.4875 55.1028 14.7065 55.2565 13.9299C55.4101 13.1532 55.6107 12.3936 55.8582 11.6511C56.3532 10.1404 56.8952 8.85588 57.4841 7.79756C57.6377 7.50737 57.7145 7.3196 57.7145 7.23425H56.063C55.44 7.23425 54.9577 7.08916 54.6163 6.79897C54.275 6.50879 54.1043 6.1802 54.1043 5.8132C54.1043 5.44619 54.1725 5.17735 54.3091 5.00665C54.4456 4.83595 54.6163 4.71219 54.8212 4.63538C55.1114 4.51589 55.5381 4.45615 56.1014 4.45615L59.238 4.46895C59.3063 4.44335 59.4428 4.25985 59.6477 3.91845L60.4286 2.5742C60.7615 1.97676 61.0943 1.53722 61.4272 1.25556C61.7686 0.973913 62.1655 0.833087 62.6178 0.833087C63.0787 0.833087 63.4628 0.875762 63.77 0.961111C64.0858 1.04646 64.3504 1.15315 64.5638 1.28117C64.982 1.55429 65.1911 1.85301 65.1911 2.17733C65.1911 2.31389 65.1441 2.49739 65.0502 2.72783L64.3333 4.46895L70.4144 4.45615C70.9436 4.45615 71.2082 4.72926 71.2082 5.2755C71.2082 6.5728 70.0517 7.22145 67.7387 7.22145L63.0531 7.23425C62.9507 7.28546 62.7757 7.53298 62.5282 7.97679L61.9521 9.03938C61.807 9.30396 61.7046 9.50453 61.6448 9.64109L61.3632 10.2684C60.7913 11.5572 60.5054 12.4875 60.5054 13.0593C60.5054 13.6312 60.6548 14.1091 60.9535 14.4932C61.2608 14.8772 61.6662 15.0693 62.1697 15.0693C62.6733 15.0693 63.164 14.9711 63.642 14.7748C64.1285 14.5785 64.6022 14.3395 65.0631 14.0579C65.8995 13.5373 66.5567 13.055 67.0346 12.6112C67.5126 12.1674 67.9094 11.8303 68.2252 11.5998C68.2252 11.5998 68.5239 11.3907 69.1214 10.9725C69.5823 10.6653 69.945 10.5117 70.2096 10.5117ZM79.7222 4.48175C79.4747 4.68659 79.2059 4.85729 78.9157 4.99385C78.6255 5.12187 78.3012 5.18588 77.9427 5.18588C77.5842 5.18588 77.2386 5.12614 76.9057 5.00665C76.5729 4.88716 76.2827 4.72073 76.0352 4.50736C75.4975 4.04647 75.2286 3.45757 75.2286 2.74064C75.2286 1.63963 76.1504 0.820285 77.9939 0.282587C78.617 0.0948194 79.1291 0.000935642 79.5302 0.000935642C79.9313 0.000935642 80.2301 0.0478775 80.4264 0.141761C80.6312 0.22711 80.7976 0.342331 80.9257 0.487424C81.1817 0.777611 81.3097 1.07633 81.3097 1.38359C81.3097 1.68231 81.2713 1.95543 81.1945 2.20294C81.1262 2.45045 81.0238 2.7065 80.8872 2.97108C80.7507 3.23566 80.5843 3.50024 80.388 3.76482C80.1917 4.0294 79.9697 4.26838 79.7222 4.48175ZM76.496 18.5771C75.8474 18.91 75.2158 19.1746 74.6013 19.3709C73.9868 19.5757 73.3808 19.6781 72.7834 19.6781C72.1945 19.6781 71.58 19.5373 70.9398 19.2556C70.3083 18.9655 69.745 18.5814 69.2499 18.1034C68.1489 17.0366 67.5984 15.8502 67.5984 14.5444C67.5984 13.341 67.9569 12.1205 68.6738 10.8829C69.331 9.76485 70.1674 8.82601 71.1831 8.06641C72.1987 7.3068 73.1418 6.927 74.0124 6.927C75.2585 6.927 75.9242 7.27693 76.0096 7.97679C76.0352 8.19016 76.048 8.43767 76.048 8.71932C76.048 9.00098 75.9797 9.3253 75.8431 9.6923C75.7151 10.0508 75.5444 10.4135 75.331 10.7805C75.1262 11.139 74.8958 11.4932 74.6397 11.8431C74.3922 12.1845 74.1532 12.496 73.9228 12.7777C73.479 13.3154 73.1248 13.7037 72.8602 13.9427C72.8602 14.2329 73.0778 14.5316 73.5131 14.8388C73.9228 15.129 74.2684 15.2741 74.5501 15.2741C74.8403 15.2741 75.1774 15.2058 75.5615 15.0693C75.9541 14.9327 76.3552 14.7492 76.7649 14.5188C77.1831 14.2883 77.6056 14.0238 78.0323 13.725C78.4676 13.4263 78.8944 13.1191 79.3126 12.8033L81.6554 10.9725C82.5857 10.2983 83.341 9.96115 83.9214 9.96115C84.1518 9.96115 84.3268 10.0465 84.4463 10.2172C84.5743 10.3794 84.6383 10.5714 84.6383 10.7933C84.6383 11.0152 84.5274 11.3225 84.3055 11.7151C84.0836 12.0991 83.7763 12.5259 83.3837 12.9953C82.9996 13.4647 82.5473 13.9555 82.0267 14.4676C81.506 14.9797 80.9427 15.4832 80.3367 15.9782C79.7308 16.4733 79.0992 16.947 78.442 17.3993C77.7934 17.8431 77.1447 18.2357 76.496 18.5771ZM95.4056 12.4064C95.4056 13.1831 95.6318 13.5714 96.0841 13.5714C97.1937 13.5714 98.6361 12.8203 100.411 11.3182L100.757 11.0237C101.448 10.5629 102.007 10.3324 102.434 10.3324C102.869 10.3324 103.142 10.3964 103.253 10.5245C103.373 10.6525 103.433 10.8573 103.433 11.139C103.433 11.7705 103.113 12.4405 102.472 13.1489C101.517 14.3097 100.206 15.4107 98.5422 16.4519C96.6133 17.6639 94.885 18.2699 93.3572 18.2699C92.2904 18.2699 91.6204 17.6767 91.3473 16.4903C91.2705 16.1831 91.215 15.8886 91.1808 15.607C91.0955 14.9242 91.0059 14.5444 90.912 14.4676C90.8181 14.3908 90.6303 14.3993 90.3487 14.4932C90.0756 14.5785 89.747 14.7279 89.3629 14.9413C88.9874 15.1461 88.5692 15.3979 88.1083 15.6966C85.6673 17.3182 84.2633 18.2443 83.8963 18.4747C83.0172 19.0209 82.424 19.2941 82.1168 19.2941C81.8095 19.2941 81.5065 19.23 81.2078 19.102C80.9176 18.974 80.6616 18.8118 80.4397 18.6155C79.9788 18.1802 79.7484 17.7364 79.7484 17.2841C79.7484 14.698 80.3117 12.4363 81.4383 10.4988C82.1893 9.19301 83.1111 8.28831 84.2036 7.78475C84.7583 7.52017 85.3558 7.38788 85.9959 7.38788C87.1652 7.38788 87.7498 7.77195 87.7498 8.54009C87.7498 9.00951 87.4724 9.77765 86.9177 10.8445L86.5336 11.5998C86.2605 12.1205 86.1282 12.4149 86.1367 12.4832C86.1879 12.7393 86.3031 12.8673 86.4824 12.8673C86.6787 12.8673 86.9689 12.7222 87.3529 12.432L89.7086 10.6781L90.8864 9.85873C92.2434 8.9711 93.242 8.52729 93.8821 8.52729C94.2235 8.52729 94.535 8.66385 94.8167 8.93696C95.3373 9.43199 95.5976 9.863 95.5976 10.23C95.5976 10.3495 95.5848 10.4946 95.5592 10.6653C95.5422 10.836 95.5208 11.0195 95.4952 11.2158L95.444 11.8175C95.4184 12.0223 95.4056 12.2186 95.4056 12.4064ZM115.877 12.8417C115.877 13.7037 116.257 14.1347 117.016 14.1347C117.776 14.1347 119.09 13.405 120.96 11.9455L122.086 11.0237C122.829 10.4092 123.537 10.102 124.211 10.102C124.459 10.102 124.621 10.1703 124.698 10.3068C124.775 10.4348 124.813 10.6013 124.813 10.8061C124.813 11.0024 124.775 11.2115 124.698 11.4334C124.63 11.6468 124.531 11.873 124.403 12.1119C124.122 12.6496 123.849 13.0679 123.584 13.3666C123.319 13.6653 123.008 13.9768 122.649 14.3011C122.3 14.6169 121.881 14.9754 121.395 15.3765C120.908 15.7691 120.371 16.1746 119.782 16.5928C119.193 17.0024 118.6 17.378 118.002 17.7194C116.654 18.5046 115.544 18.8972 114.674 18.8972C113.632 18.8972 112.817 18.5302 112.228 17.7962C111.674 17.1134 111.362 16.2002 111.294 15.0565C109.758 16.6354 108.132 17.8517 106.416 18.7051C105.366 19.2258 104.479 19.4861 103.753 19.4861C103.028 19.4861 102.392 19.4007 101.846 19.23C101.299 19.0508 100.822 18.7862 100.412 18.4363C99.5242 17.6938 99.0804 16.661 99.0804 15.3381C99.0804 13.4434 99.7589 11.6169 101.116 9.85873C101.543 9.3125 102.021 8.83455 102.55 8.42487C103.693 7.70794 104.905 7.34948 106.186 7.34948C106.749 7.34948 107.15 7.52444 107.389 7.87437C107.483 8.01093 107.53 8.19016 107.53 8.41207C107.53 8.62544 107.466 8.87722 107.338 9.16741C107.218 9.44906 107.069 9.74778 106.89 10.0636C106.711 10.3708 106.51 10.6909 106.288 11.0237C106.075 11.3566 105.878 11.6809 105.699 11.9967C105.272 12.7478 105.059 13.2898 105.059 13.6226C105.059 13.9469 105.153 14.1859 105.341 14.3395C105.528 14.4932 105.759 14.57 106.032 14.57C106.638 14.57 107.154 14.4249 107.581 14.1347C108.008 13.836 108.43 13.4946 108.849 13.1105L110.052 11.9327L111.217 10.7293C112.045 9.88434 112.672 9.35944 113.099 9.1546C113.534 8.94123 113.85 8.86015 114.046 8.91136C114.243 8.96257 114.443 9.05645 114.648 9.19301C114.853 9.32103 115.053 9.47893 115.25 9.6667C115.711 10.1105 115.967 10.5117 116.018 10.8701C116.035 11.1006 116.014 11.4462 115.954 11.9071C115.903 12.3595 115.877 12.671 115.877 12.8417ZM137.142 12.8417C137.142 13.7037 137.522 14.1347 138.282 14.1347C139.041 14.1347 140.356 13.405 142.225 11.9455L143.351 11.0237C144.094 10.4092 144.802 10.102 145.477 10.102C145.724 10.102 145.886 10.1703 145.963 10.3068C146.04 10.4348 146.078 10.6013 146.078 10.8061C146.078 11.0024 146.04 11.2115 145.963 11.4334C145.895 11.6468 145.797 11.873 145.669 12.1119C145.387 12.6496 145.114 13.0679 144.849 13.3666C144.585 13.6653 144.273 13.9768 143.915 14.3011C143.565 14.6169 143.147 14.9754 142.66 15.3765C142.174 15.7691 141.636 16.1746 141.047 16.5928C140.458 17.0024 139.865 17.378 139.267 17.7194C137.919 18.5046 136.809 18.8972 135.939 18.8972C134.898 18.8972 134.082 18.5302 133.494 17.7962C132.939 17.1134 132.627 16.2002 132.559 15.0565C131.023 16.6354 129.397 17.8517 127.681 18.7051C126.632 19.2258 125.744 19.4861 125.018 19.4861C124.293 19.4861 123.657 19.4007 123.111 19.23C122.565 19.0508 122.087 18.7862 121.677 18.4363C120.789 17.6938 120.346 16.661 120.346 15.3381C120.346 13.4434 121.024 11.6169 122.381 9.85873C122.808 9.3125 123.286 8.83455 123.815 8.42487C124.959 7.70794 126.171 7.34948 127.451 7.34948C128.014 7.34948 128.415 7.52444 128.654 7.87437C128.748 8.01093 128.795 8.19016 128.795 8.41207C128.795 8.62544 128.731 8.87722 128.603 9.16741C128.484 9.44906 128.334 9.74778 128.155 10.0636C127.976 10.3708 127.775 10.6909 127.553 11.0237C127.34 11.3566 127.144 11.6809 126.964 11.9967C126.538 12.7478 126.324 13.2898 126.324 13.6226C126.324 13.9469 126.418 14.1859 126.606 14.3395C126.794 14.4932 127.024 14.57 127.297 14.57C127.903 14.57 128.42 14.4249 128.846 14.1347C129.273 13.836 129.696 13.4946 130.114 13.1105L131.317 11.9327L132.482 10.7293C133.31 9.88434 133.937 9.35944 134.364 9.1546C134.799 8.94123 135.115 8.86015 135.312 8.91136C135.508 8.96257 135.708 9.05645 135.913 9.19301C136.118 9.32103 136.319 9.47893 136.515 9.6667C136.976 10.1105 137.232 10.5117 137.283 10.8701C137.3 11.1006 137.279 11.4462 137.219 11.9071C137.168 12.3595 137.142 12.671 137.142 12.8417ZM167.075 12.2656C167.075 13.5202 167.467 14.1475 168.252 14.1475C168.799 14.1475 169.742 13.6696 171.082 12.7137C172.294 11.8175 173.015 11.2542 173.245 11.0237C173.775 10.5799 174.329 10.358 174.91 10.358C175.157 10.358 175.366 10.4434 175.537 10.6141C175.716 10.7762 175.806 11.0237 175.806 11.3566C175.806 11.6895 175.725 11.9925 175.563 12.2656C175.4 12.5387 175.191 12.8203 174.935 13.1105C174.688 13.4007 174.376 13.725 174.001 14.0835C173.634 14.442 173.211 14.8218 172.733 15.2229C172.255 15.6155 171.73 16.0081 171.159 16.4007C170.595 16.7933 170.011 17.1475 169.405 17.4633C168.039 18.1632 166.806 18.5131 165.705 18.5131C164.442 18.5131 163.584 17.9413 163.131 16.7976C162.867 16.1404 162.735 15.3509 162.735 14.4292L159.009 16.9512C156.457 18.7436 154.938 19.6952 154.452 19.8061C154.204 19.8659 153.952 19.8958 153.696 19.8958C153.449 19.8958 153.214 19.8702 152.992 19.8189C152.77 19.7763 152.574 19.6995 152.403 19.5885C152.011 19.3581 151.814 19.0167 151.814 18.5643C151.814 18.3851 151.934 17.9498 152.173 17.2585L153.274 14.2371C153.615 13.2642 153.786 12.6795 153.786 12.4832C153.786 12.4149 153.743 12.3808 153.658 12.3808C153.572 12.3808 153.415 12.4704 153.184 12.6496C152.954 12.8289 152.676 13.0593 152.352 13.341L149.305 16.0039L147.705 17.3353C146.066 18.6411 144.73 19.2941 143.698 19.2941C143.211 19.2941 142.72 19.0764 142.225 18.6411C141.688 18.1802 141.419 17.6255 141.419 16.9768C141.419 16.3282 141.483 15.6198 141.611 14.8516C141.73 14.0835 141.905 13.3452 142.136 12.6368C142.366 11.9199 142.652 11.2499 142.993 10.6269C143.335 9.99529 143.723 9.44906 144.158 8.98817C145.097 7.98106 146.203 7.4775 147.474 7.4775C148.754 7.4775 149.395 7.85303 149.395 8.6041C149.395 8.92843 149.22 9.42345 148.87 10.0892C148.127 11.5572 147.756 12.3509 147.756 12.4704C147.756 12.5814 147.79 12.671 147.858 12.7393C147.935 12.799 148.016 12.8289 148.102 12.8289C148.281 12.8289 148.537 12.6838 148.87 12.3936C151.063 10.4732 152.442 9.28263 153.005 8.82174C153.577 8.36086 154.127 7.95545 154.656 7.60552C155.868 6.81178 156.833 6.4149 157.55 6.4149C158.139 6.4149 158.617 6.50879 158.984 6.69656C159.624 7.02942 159.944 7.40495 159.944 7.82316C159.944 8.24137 159.884 8.71506 159.764 9.24422C159.654 9.77338 159.53 10.2855 159.393 10.7805L159.009 12.0863C158.89 12.4619 158.83 12.7521 158.83 12.9569C158.83 13.1532 158.915 13.2514 159.086 13.2514C159.496 13.2514 160.311 12.671 161.531 11.5102L162.773 10.3452C164.198 9.06499 165.278 8.42487 166.012 8.42487C166.362 8.42487 166.673 8.56143 166.947 8.83455C167.425 9.3125 167.664 9.73071 167.664 10.0892C167.664 10.2855 167.595 10.5501 167.459 10.8829C167.203 11.506 167.075 11.9669 167.075 12.2656Z" fill="url(#paint0_linear_2602_48635)"/>
<path d="M6.50365 13.2642C6.50365 14.6895 7.9247 15.4021 10.7668 15.4021C12.6872 15.4021 15.0983 14.6767 18.0001 13.2257L19.306 12.5344C21.2861 11.5273 22.4041 11.3097 22.6602 11.8815C22.7285 12.0351 22.7626 12.2144 22.7626 12.4192C22.7626 12.6155 22.6773 12.8203 22.5066 13.0337C22.3444 13.2385 22.1225 13.469 21.8408 13.725C21.5592 13.9725 21.2306 14.2371 20.8551 14.5188C20.4795 14.7919 20.0827 15.065 19.6644 15.3381L18.4098 16.1191C17.9831 16.3751 17.5222 16.6269 17.0272 16.8744L15.158 17.7962C12.2306 19.1618 9.46952 19.8446 6.87491 19.8446C4.60463 19.8446 2.85925 19.3965 1.63876 18.5003C0.546293 17.7066 5.96922e-05 16.6824 5.96922e-05 15.4277C5.96922e-05 13.6952 0.781002 11.9498 2.34289 10.1916C3.6914 8.68092 5.5392 7.24706 7.8863 5.89001C9.93467 4.70366 12.1196 3.73068 14.4411 2.97108C16.6346 2.24561 18.4141 1.88288 19.7797 1.88288C20.0699 1.88288 20.3131 1.97676 20.5094 2.16453C20.8679 2.49739 21.0471 2.82598 21.0471 3.15031C21.0471 4.41347 20.5222 5.43339 19.4724 6.21007C18.5762 6.86725 17.5307 7.19585 16.3358 7.19585C15.141 7.19585 14.2448 7.07636 13.6473 6.83738C11.4197 7.69941 9.61034 8.85588 8.21916 10.3068C7.63879 10.9128 7.20777 11.4804 6.92612 12.0095C6.64447 12.5387 6.50365 12.9569 6.50365 13.2642ZM33.6579 11.395C33.6579 11.8559 34.0505 12.0863 34.8357 12.0863C35.4161 12.0863 36.1757 11.8047 37.1145 11.2414L38.1387 10.6781C38.4545 10.4988 38.7276 10.4092 38.9581 10.4092C39.197 10.4092 39.3848 10.4818 39.5214 10.6269C39.6579 10.772 39.7262 10.9725 39.7262 11.2286C39.7262 11.4846 39.6409 11.7833 39.4702 12.1247C39.2995 12.4576 39.0648 12.8118 38.766 13.1873C38.4673 13.5543 38.1174 13.9213 37.7162 14.2883C37.3151 14.6468 36.8841 14.9711 36.4232 15.2613C35.399 15.9014 34.4474 16.2215 33.5683 16.2215C32.638 16.2215 31.8955 16.0636 31.3407 15.7478C31.17 15.6454 31.0036 15.5387 30.8414 15.4277C29.9282 16.469 28.6053 17.4249 26.8727 18.2955C25.0291 19.2172 23.4203 19.6781 22.0462 19.6781C20.6038 19.6781 19.4644 19.1106 18.628 17.9754C17.9537 17.0536 17.6166 16.1191 17.6166 15.1717C17.6166 13.8061 18.3463 12.5045 19.8058 11.267C20.8812 10.3623 21.9182 9.67523 22.9167 9.20581C23.9239 8.73639 24.8328 8.37366 25.6436 8.11762C27.3592 7.57992 28.904 7.31107 30.2781 7.31107C30.8926 7.31107 31.4388 7.43056 31.9168 7.66953C32.4033 7.89998 32.7617 8.13468 32.9922 8.37366C33.5384 8.91136 33.8115 9.59842 33.8115 10.4348C33.8115 10.6823 33.7859 10.8744 33.7347 11.0109C33.6835 11.1475 33.6579 11.2755 33.6579 11.395ZM23.1856 13.8147L23.1728 13.8531V13.8659C23.1728 14.2329 23.2539 14.4718 23.416 14.5828C23.8086 14.8218 24.2226 14.8858 24.6579 14.7748C25.0931 14.6553 25.5071 14.5102 25.8997 14.3395C26.8727 13.9213 27.7518 13.3922 28.537 12.7521C28.4004 12.4789 28.3321 12.1973 28.3321 11.9071C28.3321 11.2926 28.601 10.6781 29.1387 10.0636C28.4559 10.0636 27.5341 10.3836 26.3734 11.0237C25.0931 11.7321 24.133 12.4619 23.4929 13.2129C23.288 13.469 23.1856 13.6696 23.1856 13.8147ZM51.2232 12.4064C51.2232 13.1831 51.4494 13.5714 51.9017 13.5714C53.0113 13.5714 54.4537 12.8203 56.2289 11.3182L56.5746 11.0237C57.2659 10.5629 57.825 10.3324 58.2517 10.3324C58.687 10.3324 58.9601 10.3964 59.071 10.5245C59.1905 10.6525 59.2503 10.8573 59.2503 11.139C59.2503 11.7705 58.9302 12.4405 58.2901 13.1489C57.3342 14.3097 56.0241 15.4107 54.3598 16.4519C52.4309 17.6639 50.7026 18.2699 49.1748 18.2699C48.108 18.2699 47.438 17.6767 47.1649 16.4903C47.0881 16.1831 47.0326 15.8886 46.9984 15.607C46.9131 14.9242 46.8235 14.5444 46.7296 14.4676C46.6357 14.3908 46.4479 14.3993 46.1663 14.4932C45.8932 14.5785 45.5646 14.7279 45.1805 14.9413C44.805 15.1461 44.3868 15.3979 43.9259 15.6966C41.4849 17.3182 40.0809 18.2443 39.7139 18.4747C38.8348 19.0209 38.2417 19.2941 37.9344 19.2941C37.6271 19.2941 37.3242 19.23 37.0254 19.102C36.7352 18.974 36.4792 18.8118 36.2573 18.6155C35.7964 18.1802 35.566 17.7364 35.566 17.2841C35.566 14.698 36.1293 12.4363 37.2559 10.4988C38.0069 9.19301 38.9287 8.28831 40.0212 7.78475C40.5759 7.52017 41.1734 7.38788 41.8135 7.38788C42.9828 7.38788 43.5674 7.77195 43.5674 8.54009C43.5674 9.00951 43.29 9.77765 42.7353 10.8445L42.3512 11.5998C42.0781 12.1205 41.9458 12.4149 41.9543 12.4832C42.0055 12.7393 42.1208 12.8673 42.3 12.8673C42.4963 12.8673 42.7865 12.7222 43.1705 12.432L45.5262 10.6781L46.704 9.85873C48.061 8.9711 49.0596 8.52729 49.6997 8.52729C50.0411 8.52729 50.3527 8.66385 50.6343 8.93696C51.1549 9.43199 51.4153 9.863 51.4153 10.23C51.4153 10.3495 51.4025 10.4946 51.3768 10.6653C51.3598 10.836 51.3384 11.0195 51.3128 11.2158L51.2616 11.8175C51.236 12.0223 51.2232 12.2186 51.2232 12.4064ZM70.2096 10.5117C71.046 10.5117 71.4642 10.8018 71.4642 11.3822C71.4642 11.937 71.0716 12.6539 70.2864 13.533L69.6591 14.1859C68.8995 14.9626 68.0119 15.7265 66.9962 16.4775C65.9891 17.2286 65.1015 17.8218 64.3333 18.2571C62.5495 19.2471 60.9322 19.7421 59.4812 19.7421C58.1157 19.7421 57.0018 19.3325 56.1398 18.5131C55.3973 17.8047 55.026 17.0579 55.026 16.2727C55.026 15.4875 55.1028 14.7065 55.2565 13.9299C55.4101 13.1532 55.6107 12.3936 55.8582 11.6511C56.3532 10.1404 56.8952 8.85588 57.4841 7.79756C57.6377 7.50737 57.7145 7.3196 57.7145 7.23425H56.063C55.44 7.23425 54.9577 7.08916 54.6163 6.79897C54.275 6.50879 54.1043 6.1802 54.1043 5.8132C54.1043 5.44619 54.1725 5.17735 54.3091 5.00665C54.4456 4.83595 54.6163 4.71219 54.8212 4.63538C55.1114 4.51589 55.5381 4.45615 56.1014 4.45615L59.238 4.46895C59.3063 4.44335 59.4428 4.25985 59.6477 3.91845L60.4286 2.5742C60.7615 1.97676 61.0943 1.53722 61.4272 1.25556C61.7686 0.973913 62.1655 0.833087 62.6178 0.833087C63.0787 0.833087 63.4628 0.875762 63.77 0.961111C64.0858 1.04646 64.3504 1.15315 64.5638 1.28117C64.982 1.55429 65.1911 1.85301 65.1911 2.17733C65.1911 2.31389 65.1441 2.49739 65.0502 2.72783L64.3333 4.46895L70.4144 4.45615C70.9436 4.45615 71.2082 4.72926 71.2082 5.2755C71.2082 6.5728 70.0517 7.22145 67.7387 7.22145L63.0531 7.23425C62.9507 7.28546 62.7757 7.53298 62.5282 7.97679L61.9521 9.03938C61.807 9.30396 61.7046 9.50453 61.6448 9.64109L61.3632 10.2684C60.7913 11.5572 60.5054 12.4875 60.5054 13.0593C60.5054 13.6312 60.6548 14.1091 60.9535 14.4932C61.2608 14.8772 61.6662 15.0693 62.1697 15.0693C62.6733 15.0693 63.164 14.9711 63.642 14.7748C64.1285 14.5785 64.6022 14.3395 65.0631 14.0579C65.8995 13.5373 66.5567 13.055 67.0346 12.6112C67.5126 12.1674 67.9094 11.8303 68.2252 11.5998C68.2252 11.5998 68.5239 11.3907 69.1214 10.9725C69.5823 10.6653 69.945 10.5117 70.2096 10.5117ZM79.7222 4.48175C79.4747 4.68659 79.2059 4.85729 78.9157 4.99385C78.6255 5.12187 78.3012 5.18588 77.9427 5.18588C77.5842 5.18588 77.2386 5.12614 76.9057 5.00665C76.5729 4.88716 76.2827 4.72073 76.0352 4.50736C75.4975 4.04647 75.2286 3.45757 75.2286 2.74064C75.2286 1.63963 76.1504 0.820285 77.9939 0.282587C78.617 0.0948194 79.1291 0.000935642 79.5302 0.000935642C79.9313 0.000935642 80.2301 0.0478775 80.4264 0.141761C80.6312 0.22711 80.7976 0.342331 80.9257 0.487424C81.1817 0.777611 81.3097 1.07633 81.3097 1.38359C81.3097 1.68231 81.2713 1.95543 81.1945 2.20294C81.1262 2.45045 81.0238 2.7065 80.8872 2.97108C80.7507 3.23566 80.5843 3.50024 80.388 3.76482C80.1917 4.0294 79.9697 4.26838 79.7222 4.48175ZM76.496 18.5771C75.8474 18.91 75.2158 19.1746 74.6013 19.3709C73.9868 19.5757 73.3808 19.6781 72.7834 19.6781C72.1945 19.6781 71.58 19.5373 70.9398 19.2556C70.3083 18.9655 69.745 18.5814 69.2499 18.1034C68.1489 17.0366 67.5984 15.8502 67.5984 14.5444C67.5984 13.341 67.9569 12.1205 68.6738 10.8829C69.331 9.76485 70.1674 8.82601 71.1831 8.06641C72.1987 7.3068 73.1418 6.927 74.0124 6.927C75.2585 6.927 75.9242 7.27693 76.0096 7.97679C76.0352 8.19016 76.048 8.43767 76.048 8.71932C76.048 9.00098 75.9797 9.3253 75.8431 9.6923C75.7151 10.0508 75.5444 10.4135 75.331 10.7805C75.1262 11.139 74.8958 11.4932 74.6397 11.8431C74.3922 12.1845 74.1532 12.496 73.9228 12.7777C73.479 13.3154 73.1248 13.7037 72.8602 13.9427C72.8602 14.2329 73.0778 14.5316 73.5131 14.8388C73.9228 15.129 74.2684 15.2741 74.5501 15.2741C74.8403 15.2741 75.1774 15.2058 75.5615 15.0693C75.9541 14.9327 76.3552 14.7492 76.7649 14.5188C77.1831 14.2883 77.6056 14.0238 78.0323 13.725C78.4676 13.4263 78.8944 13.1191 79.3126 12.8033L81.6554 10.9725C82.5857 10.2983 83.341 9.96115 83.9214 9.96115C84.1518 9.96115 84.3268 10.0465 84.4463 10.2172C84.5743 10.3794 84.6383 10.5714 84.6383 10.7933C84.6383 11.0152 84.5274 11.3225 84.3055 11.7151C84.0836 12.0991 83.7763 12.5259 83.3837 12.9953C82.9996 13.4647 82.5473 13.9555 82.0267 14.4676C81.506 14.9797 80.9427 15.4832 80.3367 15.9782C79.7308 16.4733 79.0992 16.947 78.442 17.3993C77.7934 17.8431 77.1447 18.2357 76.496 18.5771ZM95.4056 12.4064C95.4056 13.1831 95.6318 13.5714 96.0841 13.5714C97.1937 13.5714 98.6361 12.8203 100.411 11.3182L100.757 11.0237C101.448 10.5629 102.007 10.3324 102.434 10.3324C102.869 10.3324 103.142 10.3964 103.253 10.5245C103.373 10.6525 103.433 10.8573 103.433 11.139C103.433 11.7705 103.113 12.4405 102.472 13.1489C101.517 14.3097 100.206 15.4107 98.5422 16.4519C96.6133 17.6639 94.885 18.2699 93.3572 18.2699C92.2904 18.2699 91.6204 17.6767 91.3473 16.4903C91.2705 16.1831 91.215 15.8886 91.1808 15.607C91.0955 14.9242 91.0059 14.5444 90.912 14.4676C90.8181 14.3908 90.6303 14.3993 90.3487 14.4932C90.0756 14.5785 89.747 14.7279 89.3629 14.9413C88.9874 15.1461 88.5692 15.3979 88.1083 15.6966C85.6673 17.3182 84.2633 18.2443 83.8963 18.4747C83.0172 19.0209 82.424 19.2941 82.1168 19.2941C81.8095 19.2941 81.5065 19.23 81.2078 19.102C80.9176 18.974 80.6616 18.8118 80.4397 18.6155C79.9788 18.1802 79.7484 17.7364 79.7484 17.2841C79.7484 14.698 80.3117 12.4363 81.4383 10.4988C82.1893 9.19301 83.1111 8.28831 84.2036 7.78475C84.7583 7.52017 85.3558 7.38788 85.9959 7.38788C87.1652 7.38788 87.7498 7.77195 87.7498 8.54009C87.7498 9.00951 87.4724 9.77765 86.9177 10.8445L86.5336 11.5998C86.2605 12.1205 86.1282 12.4149 86.1367 12.4832C86.1879 12.7393 86.3031 12.8673 86.4824 12.8673C86.6787 12.8673 86.9689 12.7222 87.3529 12.432L89.7086 10.6781L90.8864 9.85873C92.2434 8.9711 93.242 8.52729 93.8821 8.52729C94.2235 8.52729 94.535 8.66385 94.8167 8.93696C95.3373 9.43199 95.5976 9.863 95.5976 10.23C95.5976 10.3495 95.5848 10.4946 95.5592 10.6653C95.5422 10.836 95.5208 11.0195 95.4952 11.2158L95.444 11.8175C95.4184 12.0223 95.4056 12.2186 95.4056 12.4064ZM115.877 12.8417C115.877 13.7037 116.257 14.1347 117.016 14.1347C117.776 14.1347 119.09 13.405 120.96 11.9455L122.086 11.0237C122.829 10.4092 123.537 10.102 124.211 10.102C124.459 10.102 124.621 10.1703 124.698 10.3068C124.775 10.4348 124.813 10.6013 124.813 10.8061C124.813 11.0024 124.775 11.2115 124.698 11.4334C124.63 11.6468 124.531 11.873 124.403 12.1119C124.122 12.6496 123.849 13.0679 123.584 13.3666C123.319 13.6653 123.008 13.9768 122.649 14.3011C122.3 14.6169 121.881 14.9754 121.395 15.3765C120.908 15.7691 120.371 16.1746 119.782 16.5928C119.193 17.0024 118.6 17.378 118.002 17.7194C116.654 18.5046 115.544 18.8972 114.674 18.8972C113.632 18.8972 112.817 18.5302 112.228 17.7962C111.674 17.1134 111.362 16.2002 111.294 15.0565C109.758 16.6354 108.132 17.8517 106.416 18.7051C105.366 19.2258 104.479 19.4861 103.753 19.4861C103.028 19.4861 102.392 19.4007 101.846 19.23C101.299 19.0508 100.822 18.7862 100.412 18.4363C99.5242 17.6938 99.0804 16.661 99.0804 15.3381C99.0804 13.4434 99.7589 11.6169 101.116 9.85873C101.543 9.3125 102.021 8.83455 102.55 8.42487C103.693 7.70794 104.905 7.34948 106.186 7.34948C106.749 7.34948 107.15 7.52444 107.389 7.87437C107.483 8.01093 107.53 8.19016 107.53 8.41207C107.53 8.62544 107.466 8.87722 107.338 9.16741C107.218 9.44906 107.069 9.74778 106.89 10.0636C106.711 10.3708 106.51 10.6909 106.288 11.0237C106.075 11.3566 105.878 11.6809 105.699 11.9967C105.272 12.7478 105.059 13.2898 105.059 13.6226C105.059 13.9469 105.153 14.1859 105.341 14.3395C105.528 14.4932 105.759 14.57 106.032 14.57C106.638 14.57 107.154 14.4249 107.581 14.1347C108.008 13.836 108.43 13.4946 108.849 13.1105L110.052 11.9327L111.217 10.7293C112.045 9.88434 112.672 9.35944 113.099 9.1546C113.534 8.94123 113.85 8.86015 114.046 8.91136C114.243 8.96257 114.443 9.05645 114.648 9.19301C114.853 9.32103 115.053 9.47893 115.25 9.6667C115.711 10.1105 115.967 10.5117 116.018 10.8701C116.035 11.1006 116.014 11.4462 115.954 11.9071C115.903 12.3595 115.877 12.671 115.877 12.8417ZM137.142 12.8417C137.142 13.7037 137.522 14.1347 138.282 14.1347C139.041 14.1347 140.356 13.405 142.225 11.9455L143.351 11.0237C144.094 10.4092 144.802 10.102 145.477 10.102C145.724 10.102 145.886 10.1703 145.963 10.3068C146.04 10.4348 146.078 10.6013 146.078 10.8061C146.078 11.0024 146.04 11.2115 145.963 11.4334C145.895 11.6468 145.797 11.873 145.669 12.1119C145.387 12.6496 145.114 13.0679 144.849 13.3666C144.585 13.6653 144.273 13.9768 143.915 14.3011C143.565 14.6169 143.147 14.9754 142.66 15.3765C142.174 15.7691 141.636 16.1746 141.047 16.5928C140.458 17.0024 139.865 17.378 139.267 17.7194C137.919 18.5046 136.809 18.8972 135.939 18.8972C134.898 18.8972 134.082 18.5302 133.494 17.7962C132.939 17.1134 132.627 16.2002 132.559 15.0565C131.023 16.6354 129.397 17.8517 127.681 18.7051C126.632 19.2258 125.744 19.4861 125.018 19.4861C124.293 19.4861 123.657 19.4007 123.111 19.23C122.565 19.0508 122.087 18.7862 121.677 18.4363C120.789 17.6938 120.346 16.661 120.346 15.3381C120.346 13.4434 121.024 11.6169 122.381 9.85873C122.808 9.3125 123.286 8.83455 123.815 8.42487C124.959 7.70794 126.171 7.34948 127.451 7.34948C128.014 7.34948 128.415 7.52444 128.654 7.87437C128.748 8.01093 128.795 8.19016 128.795 8.41207C128.795 8.62544 128.731 8.87722 128.603 9.16741C128.484 9.44906 128.334 9.74778 128.155 10.0636C127.976 10.3708 127.775 10.6909 127.553 11.0237C127.34 11.3566 127.144 11.6809 126.964 11.9967C126.538 12.7478 126.324 13.2898 126.324 13.6226C126.324 13.9469 126.418 14.1859 126.606 14.3395C126.794 14.4932 127.024 14.57 127.297 14.57C127.903 14.57 128.42 14.4249 128.846 14.1347C129.273 13.836 129.696 13.4946 130.114 13.1105L131.317 11.9327L132.482 10.7293C133.31 9.88434 133.937 9.35944 134.364 9.1546C134.799 8.94123 135.115 8.86015 135.312 8.91136C135.508 8.96257 135.708 9.05645 135.913 9.19301C136.118 9.32103 136.319 9.47893 136.515 9.6667C136.976 10.1105 137.232 10.5117 137.283 10.8701C137.3 11.1006 137.279 11.4462 137.219 11.9071C137.168 12.3595 137.142 12.671 137.142 12.8417ZM167.075 12.2656C167.075 13.5202 167.467 14.1475 168.252 14.1475C168.799 14.1475 169.742 13.6696 171.082 12.7137C172.294 11.8175 173.015 11.2542 173.245 11.0237C173.775 10.5799 174.329 10.358 174.91 10.358C175.157 10.358 175.366 10.4434 175.537 10.6141C175.716 10.7762 175.806 11.0237 175.806 11.3566C175.806 11.6895 175.725 11.9925 175.563 12.2656C175.4 12.5387 175.191 12.8203 174.935 13.1105C174.688 13.4007 174.376 13.725 174.001 14.0835C173.634 14.442 173.211 14.8218 172.733 15.2229C172.255 15.6155 171.73 16.0081 171.159 16.4007C170.595 16.7933 170.011 17.1475 169.405 17.4633C168.039 18.1632 166.806 18.5131 165.705 18.5131C164.442 18.5131 163.584 17.9413 163.131 16.7976C162.867 16.1404 162.735 15.3509 162.735 14.4292L159.009 16.9512C156.457 18.7436 154.938 19.6952 154.452 19.8061C154.204 19.8659 153.952 19.8958 153.696 19.8958C153.449 19.8958 153.214 19.8702 152.992 19.8189C152.77 19.7763 152.574 19.6995 152.403 19.5885C152.011 19.3581 151.814 19.0167 151.814 18.5643C151.814 18.3851 151.934 17.9498 152.173 17.2585L153.274 14.2371C153.615 13.2642 153.786 12.6795 153.786 12.4832C153.786 12.4149 153.743 12.3808 153.658 12.3808C153.572 12.3808 153.415 12.4704 153.184 12.6496C152.954 12.8289 152.676 13.0593 152.352 13.341L149.305 16.0039L147.705 17.3353C146.066 18.6411 144.73 19.2941 143.698 19.2941C143.211 19.2941 142.72 19.0764 142.225 18.6411C141.688 18.1802 141.419 17.6255 141.419 16.9768C141.419 16.3282 141.483 15.6198 141.611 14.8516C141.73 14.0835 141.905 13.3452 142.136 12.6368C142.366 11.9199 142.652 11.2499 142.993 10.6269C143.335 9.99529 143.723 9.44906 144.158 8.98817C145.097 7.98106 146.203 7.4775 147.474 7.4775C148.754 7.4775 149.395 7.85303 149.395 8.6041C149.395 8.92843 149.22 9.42345 148.87 10.0892C148.127 11.5572 147.756 12.3509 147.756 12.4704C147.756 12.5814 147.79 12.671 147.858 12.7393C147.935 12.799 148.016 12.8289 148.102 12.8289C148.281 12.8289 148.537 12.6838 148.87 12.3936C151.063 10.4732 152.442 9.28263 153.005 8.82174C153.577 8.36086 154.127 7.95545 154.656 7.60552C155.868 6.81178 156.833 6.4149 157.55 6.4149C158.139 6.4149 158.617 6.50879 158.984 6.69656C159.624 7.02942 159.944 7.40495 159.944 7.82316C159.944 8.24137 159.884 8.71506 159.764 9.24422C159.654 9.77338 159.53 10.2855 159.393 10.7805L159.009 12.0863C158.89 12.4619 158.83 12.7521 158.83 12.9569C158.83 13.1532 158.915 13.2514 159.086 13.2514C159.496 13.2514 160.311 12.671 161.531 11.5102L162.773 10.3452C164.198 9.06499 165.278 8.42487 166.012 8.42487C166.362 8.42487 166.673 8.56143 166.947 8.83455C167.425 9.3125 167.664 9.73071 167.664 10.0892C167.664 10.2855 167.595 10.5501 167.459 10.8829C167.203 11.506 167.075 11.9669 167.075 12.2656Z" fill="#142025" fill-opacity="0.78"/>
<defs>
<linearGradient id="paint0_linear_2602_48635" x1="67.6832" y1="-79.0938" x2="134.191" y2="408.972" gradientUnits="userSpaceOnUse">
<stop stop-color="#24B5F8"/>
<stop offset="1" stop-color="#5521FE"/>
</linearGradient>
</defs>
</svg>
