<svg width="16" height="16" viewBox="0 0 16 16" fill="none" xmlns="http://www.w3.org/2000/svg">
<path d="M7.99996 8.66536C8.36815 8.66536 8.66663 8.36689 8.66663 7.9987C8.66663 7.63051 8.36815 7.33203 7.99996 7.33203C7.63177 7.33203 7.33329 7.63051 7.33329 7.9987C7.33329 8.36689 7.63177 8.66536 7.99996 8.66536Z" stroke="#606D76" stroke-width="1.33333" stroke-linecap="round" stroke-linejoin="round"/>
<path d="M12.6666 8.66536C13.0348 8.66536 13.3333 8.36689 13.3333 7.9987C13.3333 7.63051 13.0348 7.33203 12.6666 7.33203C12.2984 7.33203 12 7.63051 12 7.9987C12 8.36689 12.2984 8.66536 12.6666 8.66536Z" stroke="#606D76" stroke-width="1.33333" stroke-linecap="round" stroke-linejoin="round"/>
<path d="M3.33329 8.66536C3.70148 8.66536 3.99996 8.36689 3.99996 7.9987C3.99996 7.63051 3.70148 7.33203 3.33329 7.33203C2.9651 7.33203 2.66663 7.63051 2.66663 7.9987C2.66663 8.36689 2.9651 8.66536 3.33329 8.66536Z" stroke="#606D76" stroke-width="1.33333" stroke-linecap="round" stroke-linejoin="round"/>
</svg>
