<svg width="16" height="16" viewBox="0 0 16 16" fill="none" xmlns="http://www.w3.org/2000/svg">
<path d="M4.00004 9.33333L4.96671 7.4C5.07802 7.1791 5.24858 6.99353 5.45933 6.86402C5.67007 6.73451 5.91268 6.66618 6.16004 6.66667H13.3334M13.3334 6.66667C13.5371 6.66631 13.7381 6.71262 13.9211 6.80206C14.1041 6.89149 14.2642 7.02166 14.3891 7.18258C14.514 7.3435 14.6003 7.53089 14.6415 7.73037C14.6827 7.92985 14.6776 8.13611 14.6267 8.33333L13.5934 12.3333C13.5194 12.6199 13.3521 12.8738 13.118 13.0548C12.8838 13.2359 12.596 13.3339 12.3 13.3333H2.66671C2.31309 13.3333 1.97395 13.1929 1.7239 12.9428C1.47385 12.6928 1.33337 12.3536 1.33337 12V3.33333C1.33337 2.6 1.93337 2 2.66671 2H5.28671C5.50632 2.00114 5.72225 2.0565 5.91531 2.16117C6.10837 2.26585 6.27259 2.41659 6.39337 2.6L6.94004 3.4C7.06082 3.58341 7.22504 3.73415 7.41811 3.83883C7.61117 3.9435 7.8271 3.99886 8.04671 4H12C12.3537 4 12.6928 4.14048 12.9428 4.39052C13.1929 4.64057 13.3334 4.97971 13.3334 5.33333V6.66667ZM10 10C10 10.3682 9.70156 10.6667 9.33337 10.6667C8.96518 10.6667 8.66671 10.3682 8.66671 10C8.66671 9.63181 8.96518 9.33333 9.33337 9.33333C9.70156 9.33333 10 9.63181 10 10Z" stroke="#606D76" stroke-width="1.33333" stroke-linecap="round" stroke-linejoin="round"/>
</svg>
