<svg width="16" height="16" viewBox="0 0 16 16" fill="none" xmlns="http://www.w3.org/2000/svg">
<path d="M2.66671 13.3333H13.3334C13.687 13.3333 14.0261 13.1929 14.2762 12.9428C14.5262 12.6928 14.6667 12.3536 14.6667 12V5.33333C14.6667 4.97971 14.5262 4.64057 14.2762 4.39052C14.0261 4.14048 13.687 4 13.3334 4H8.04671C7.8271 3.99886 7.61117 3.9435 7.41811 3.83883C7.22504 3.73415 7.06082 3.58341 6.94004 3.4L6.39337 2.6C6.27259 2.41659 6.10837 2.26585 5.91531 2.16117C5.72225 2.0565 5.50632 2.00114 5.28671 2H2.66671C2.31309 2 1.97395 2.14048 1.7239 2.39052C1.47385 2.64057 1.33337 2.97971 1.33337 3.33333V12C1.33337 12.7333 1.93337 13.3333 2.66671 13.3333Z" stroke="#606D76" stroke-width="1.33333" stroke-linecap="round" stroke-linejoin="round"/>
<path d="M8.00004 9.33333C8.36823 9.33333 8.66671 9.03486 8.66671 8.66667C8.66671 8.29848 8.36823 8 8.00004 8C7.63185 8 7.33337 8.29848 7.33337 8.66667C7.33337 9.03486 7.63185 9.33333 8.00004 9.33333Z" stroke="#606D76" stroke-width="1.33333" stroke-linecap="round" stroke-linejoin="round"/>
</svg>
