<svg width="16" height="16" viewBox="0 0 16 16" fill="none" xmlns="http://www.w3.org/2000/svg">
<path d="M10 8H6.66671M10 5.33333H6.66671M12.6667 11.3333V3.33333C12.6667 2.97971 12.5262 2.64057 12.2762 2.39052C12.0261 2.14048 11.687 2 11.3334 2H2.66671M2.66671 2C3.02033 2 3.35947 2.14048 3.60952 2.39052C3.85956 2.64057 4.00004 2.97971 4.00004 3.33333V12.6667C4.00004 13.0203 4.14052 13.3594 4.39056 13.6095C4.64061 13.8595 4.97975 14 5.33337 14M2.66671 2C2.31309 2 1.97395 2.14048 1.7239 2.39052C1.47385 2.64057 1.33337 2.97971 1.33337 3.33333V4.66667C1.33337 4.84348 1.40361 5.01305 1.52864 5.13807C1.65366 5.2631 1.82323 5.33333 2.00004 5.33333H4.00004M5.33337 14H13.3334C13.687 14 14.0261 13.8595 14.2762 13.6095C14.5262 13.3594 14.6667 13.0203 14.6667 12.6667V12C14.6667 11.8232 14.5965 11.6536 14.4714 11.5286C14.3464 11.4036 14.1769 11.3333 14 11.3333H7.33337C7.15656 11.3333 6.98699 11.4036 6.86197 11.5286C6.73695 11.6536 6.66671 11.8232 6.66671 12V12.6667C6.66671 13.0203 6.52623 13.3594 6.27618 13.6095C6.02613 13.8595 5.687 14 5.33337 14Z" stroke="#606D76" stroke-width="1.33333" stroke-linecap="round" stroke-linejoin="round"/>
</svg>
