<svg width="16" height="16" viewBox="0 0 16 16" fill="none" xmlns="http://www.w3.org/2000/svg">
<path d="M8.00004 14.6654C11.6819 14.6654 14.6667 11.6806 14.6667 7.9987C14.6667 4.3168 11.6819 1.33203 8.00004 1.33203C4.31814 1.33203 1.33337 4.3168 1.33337 7.9987C1.33337 11.6806 4.31814 14.6654 8.00004 14.6654Z" stroke="#606D76" stroke-width="1.33333" stroke-linecap="round" stroke-linejoin="round"/>
<path d="M8.00004 11.9987C10.2092 11.9987 12 10.2078 12 7.9987C12 5.78956 10.2092 3.9987 8.00004 3.9987C5.7909 3.9987 4.00004 5.78956 4.00004 7.9987C4.00004 10.2078 5.7909 11.9987 8.00004 11.9987Z" stroke="#606D76" stroke-width="1.33333" stroke-linecap="round" stroke-linejoin="round"/>
<path d="M8.00004 9.33203C8.73642 9.33203 9.33337 8.73508 9.33337 7.9987C9.33337 7.26232 8.73642 6.66536 8.00004 6.66536C7.26366 6.66536 6.66671 7.26232 6.66671 7.9987C6.66671 8.73508 7.26366 9.33203 8.00004 9.33203Z" stroke="#606D76" stroke-width="1.33333" stroke-linecap="round" stroke-linejoin="round"/>
</svg>
