<svg width="16" height="16" viewBox="0 0 16 16" fill="none" xmlns="http://www.w3.org/2000/svg">
<path d="M10.7 7.31068C10.391 7.52411 9.98517 7.69786 9.51583 7.81767C9.04649 7.93749 8.52702 7.99996 8.00004 7.99996C7.47306 7.99996 6.95359 7.93749 6.48425 7.81767C6.01491 7.69786 5.60907 7.52411 5.30004 7.31068M11.282 9.36601L14.2687 10.726C14.3872 10.778 14.488 10.8634 14.5589 10.9717C14.6297 11.0801 14.6674 11.2067 14.6675 11.3361C14.6676 11.4656 14.63 11.5922 14.5593 11.7006C14.4886 11.809 14.3878 11.8945 14.2694 11.9467L8.55337 14.5467C8.37966 14.6259 8.19096 14.6669 8.00004 14.6669C7.80911 14.6669 7.62041 14.6259 7.44671 14.5467L1.73071 11.94C1.6124 11.8879 1.51182 11.8024 1.44121 11.6941C1.3706 11.5858 1.33301 11.4593 1.33301 11.33C1.33301 11.2007 1.3706 11.0742 1.44121 10.9659C1.51182 10.8576 1.6124 10.7722 1.73071 10.72L4.72004 9.36001M6.12937 4.38001C6.68128 4.56702 7.33267 4.66699 7.99937 4.66699C8.66608 4.66699 9.31746 4.56702 9.86937 4.38001M11.2994 9.42668C11.3667 9.66303 11.3317 9.90386 11.1968 10.1329C11.0618 10.3619 10.8301 10.5737 10.5172 10.754C10.2043 10.9343 9.81752 11.079 9.38313 11.1781C8.94875 11.2772 8.47684 11.3285 7.99937 11.3285C7.5219 11.3285 7.05 11.2772 6.61561 11.1781C6.18122 11.079 5.79449 10.9343 5.48158 10.754C5.16868 10.5737 4.9369 10.3619 4.80195 10.1329C4.667 9.90386 4.63202 9.66303 4.69937 9.42668L6.7087 2.33335C6.78237 2.04684 6.94923 1.79296 7.18301 1.61169C7.41678 1.43041 7.70421 1.33203 8.00004 1.33203C8.29587 1.33203 8.58329 1.43041 8.81707 1.61169C9.05085 1.79296 9.21771 2.04684 9.29137 2.33335L11.2994 9.42668Z" stroke="#0B191F" stroke-linecap="round" stroke-linejoin="round"/>
</svg>
